<svg width="200" height="200" viewBox="0 0 200 200" fill="none" xmlns="http://www.w3.org/2000/svg">
<rect width="200" height="200" rx="16" fill="white"/>
<path d="M63 144.397L136.166 100.199L63 56L91.347 99.2624C91.3926 99.332 91.4331 99.404 91.4681 99.4794C91.5034 99.5547 91.5329 99.632 91.5567 99.7116C91.5805 99.7912 91.5985 99.872 91.6105 99.9544C91.6225 100.036 91.6285 100.119 91.6285 100.202C91.6285 100.285 91.6225 100.368 91.6105 100.45C91.5985 100.532 91.5805 100.613 91.5567 100.693C91.5329 100.772 91.5034 100.85 91.4681 100.925C91.4331 101 91.3926 101.072 91.347 101.142L63 144.397Z" fill="black"/>
</svg>
